{
    "asset" : {
        "generator" : "Khronos glTF Blender I/O v0.9.36",
        "version" : "2.0"
    },
    "scene" : 0,
    "scenes" : [
        {
            "name" : "Scene",
            "nodes" : [
                0
            ]
        }
    ],
    "nodes" : [
        {
            "mesh" : 0,
            "name" : "Richier01",
            "rotation" : [
                0.7071068286895752,
                0,
                0,
                0.7071067094802856
            ],
            "scale" : [
                0.10000000149011612,
                0.10000000149011612,
                0.10000000149011612
            ]
        }
    ],
    "materials" : [
        {
            "doubleSided" : true,
            "name" : "Default OBJ",
            "pbrMetallicRoughness" : {
                "baseColorFactor" : [
                    1,
                    0.3915724754333496,
                    0.25818297266960144,
                    1
                ],
                "metallicFactor" : 1,
                "roughnessFactor" : 0
            }
        }
    ],
    "meshes" : [
        {
            "name" : "Richier01",
            "primitives" : [
                {
                    "attributes" : {
                        "POSITION" : 0,
                        "NORMAL" : 1
                    },
                    "indices" : 2,
                    "material" : 0
                },
                {
                    "attributes" : {
                        "POSITION" : 3,
                        "NORMAL" : 4
                    },
                    "indices" : 2,
                    "material" : 0
                },
                {
                    "attributes" : {
                        "POSITION" : 5,
                        "NORMAL" : 6
                    },
                    "indices" : 2,
                    "material" : 0
                },
                {
                    "attributes" : {
                        "POSITION" : 7,
                        "NORMAL" : 8
                    },
                    "indices" : 2,
                    "material" : 0
                },
                {
                    "attributes" : {
                        "POSITION" : 9,
                        "NORMAL" : 10
                    },
                    "indices" : 2,
                    "material" : 0
                },
                {
                    "attributes" : {
                        "POSITION" : 11,
                        "NORMAL" : 12
                    },
                    "indices" : 2,
                    "material" : 0
                },
                {
                    "attributes" : {
                        "POSITION" : 13,
                        "NORMAL" : 14
                    },
                    "indices" : 2,
                    "material" : 0
                },
                {
                    "attributes" : {
                        "POSITION" : 15,
                        "NORMAL" : 16
                    },
                    "indices" : 2,
                    "material" : 0
                },
                {
                    "attributes" : {
                        "POSITION" : 17,
                        "NORMAL" : 18
                    },
                    "indices" : 2,
                    "material" : 0
                },
                {
                    "attributes" : {
                        "POSITION" : 19,
                        "NORMAL" : 20
                    },
                    "indices" : 2,
                    "material" : 0
                },
                {
                    "attributes" : {
                        "POSITION" : 21,
                        "NORMAL" : 22
                    },
                    "indices" : 2,
                    "material" : 0
                },
                {
                    "attributes" : {
                        "POSITION" : 23,
                        "NORMAL" : 24
                    },
                    "indices" : 2,
                    "material" : 0
                },
                {
                    "attributes" : {
                        "POSITION" : 25,
                        "NORMAL" : 26
                    },
                    "indices" : 2,
                    "material" : 0
                },
                {
                    "attributes" : {
                        "POSITION" : 27,
                        "NORMAL" : 28
                    },
                    "indices" : 29,
                    "material" : 0
                }
            ]
        }
    ],
    "accessors" : [
        {
            "bufferView" : 0,
            "componentType" : 5126,
            "count" : 65535,
            "max" : [
                586.002197265625,
                2179.56591796875,
                330.0037841796875
            ],
            "min" : [
                -136.10154724121094,
                -0.5019522309303284,
                -94.79495239257812
            ],
            "type" : "VEC3"
        },
        {
            "bufferView" : 1,
            "componentType" : 5126,
            "count" : 65535,
            "type" : "VEC3"
        },
        {
            "bufferView" : 2,
            "componentType" : 5123,
            "count" : 65535,
            "type" : "SCALAR"
        },
        {
            "bufferView" : 3,
            "componentType" : 5126,
            "count" : 65535,
            "max" : [
                586.002197265625,
                2180.323974609375,
                330.0037841796875
            ],
            "min" : [
                -137.69537353515625,
                -0.5019522309303284,
                -95.41443634033203
            ],
            "type" : "VEC3"
        },
        {
            "bufferView" : 4,
            "componentType" : 5126,
            "count" : 65535,
            "type" : "VEC3"
        },
        {
            "bufferView" : 5,
            "componentType" : 5126,
            "count" : 65535,
            "max" : [
                586.002197265625,
                2180.264404296875,
                329.4249572753906
            ],
            "min" : [
                -137.1901397705078,
                -0.5019522309303284,
                -95.2725830078125
            ],
            "type" : "VEC3"
        },
        {
            "bufferView" : 6,
            "componentType" : 5126,
            "count" : 65535,
            "type" : "VEC3"
        },
        {
            "bufferView" : 7,
            "componentType" : 5126,
            "count" : 65535,
            "max" : [
                586.002197265625,
                2180.431640625,
                329.61065673828125
            ],
            "min" : [
                -137.55499267578125,
                -0.4727086126804352,
                -95.34452819824219
            ],
            "type" : "VEC3"
        },
        {
            "bufferView" : 8,
            "componentType" : 5126,
            "count" : 65535,
            "type" : "VEC3"
        },
        {
            "bufferView" : 9,
            "componentType" : 5126,
            "count" : 65535,
            "max" : [
                586.0881958007812,
                2179.7890625,
                329.3909606933594
            ],
            "min" : [
                -137.69537353515625,
                -0.47445327043533325,
                -95.4915771484375
            ],
            "type" : "VEC3"
        },
        {
            "bufferView" : 10,
            "componentType" : 5126,
            "count" : 65535,
            "type" : "VEC3"
        },
        {
            "bufferView" : 11,
            "componentType" : 5126,
            "count" : 65535,
            "max" : [
                586.0881958007812,
                2179.748779296875,
                330.0037841796875
            ],
            "min" : [
                -137.69537353515625,
                -0.5019522309303284,
                -95.4915771484375
            ],
            "type" : "VEC3"
        },
        {
            "bufferView" : 12,
            "componentType" : 5126,
            "count" : 65535,
            "type" : "VEC3"
        },
        {
            "bufferView" : 13,
            "componentType" : 5126,
            "count" : 65535,
            "max" : [
                585.791259765625,
                2180.323974609375,
                329.335693359375
            ],
            "min" : [
                -136.1407928466797,
                -0.5019522309303284,
                -95.16228485107422
            ],
            "type" : "VEC3"
        },
        {
            "bufferView" : 14,
            "componentType" : 5126,
            "count" : 65535,
            "type" : "VEC3"
        },
        {
            "bufferView" : 15,
            "componentType" : 5126,
            "count" : 65535,
            "max" : [
                585.7901611328125,
                2180.431640625,
                329.8093566894531
            ],
            "min" : [
                -137.55499267578125,
                -0.4727086126804352,
                -95.2725830078125
            ],
            "type" : "VEC3"
        },
        {
            "bufferView" : 16,
            "componentType" : 5126,
            "count" : 65535,
            "type" : "VEC3"
        },
        {
            "bufferView" : 17,
            "componentType" : 5126,
            "count" : 65535,
            "max" : [
                584.9838256835938,
                2179.62353515625,
                329.5076904296875
            ],
            "min" : [
                -137.4312286376953,
                -0.4481724798679352,
                -95.4915771484375
            ],
            "type" : "VEC3"
        },
        {
            "bufferView" : 18,
            "componentType" : 5126,
            "count" : 65535,
            "type" : "VEC3"
        },
        {
            "bufferView" : 19,
            "componentType" : 5126,
            "count" : 65535,
            "max" : [
                586.0881958007812,
                2180.431640625,
                330.0037841796875
            ],
            "min" : [
                -137.69537353515625,
                -0.4727086126804352,
                -95.34452819824219
            ],
            "type" : "VEC3"
        },
        {
            "bufferView" : 20,
            "componentType" : 5126,
            "count" : 65535,
            "type" : "VEC3"
        },
        {
            "bufferView" : 21,
            "componentType" : 5126,
            "count" : 65535,
            "max" : [
                586.0881958007812,
                2179.748779296875,
                329.8314208984375
            ],
            "min" : [
                -137.69537353515625,
                -0.46384596824645996,
                -95.4915771484375
            ],
            "type" : "VEC3"
        },
        {
            "bufferView" : 22,
            "componentType" : 5126,
            "count" : 65535,
            "type" : "VEC3"
        },
        {
            "bufferView" : 23,
            "componentType" : 5126,
            "count" : 65535,
            "max" : [
                585.6878662109375,
                2180.388671875,
                328.9560546875
            ],
            "min" : [
                -136.9244384765625,
                -0.4727086126804352,
                -95.41443634033203
            ],
            "type" : "VEC3"
        },
        {
            "bufferView" : 24,
            "componentType" : 5126,
            "count" : 65535,
            "type" : "VEC3"
        },
        {
            "bufferView" : 25,
            "componentType" : 5126,
            "count" : 65535,
            "max" : [
                585.9382934570312,
                2177.65234375,
                329.8093566894531
            ],
            "min" : [
                -137.4312286376953,
                -0.4727086126804352,
                -95.2725830078125
            ],
            "type" : "VEC3"
        },
        {
            "bufferView" : 26,
            "componentType" : 5126,
            "count" : 65535,
            "type" : "VEC3"
        },
        {
            "bufferView" : 27,
            "componentType" : 5126,
            "count" : 39231,
            "max" : [
                585.6878662109375,
                2178.790771484375,
                329.6852111816406
            ],
            "min" : [
                -134.22869873046875,
                -0.46384596824645996,
                -94.79495239257812
            ],
            "type" : "VEC3"
        },
        {
            "bufferView" : 28,
            "componentType" : 5126,
            "count" : 39231,
            "type" : "VEC3"
        },
        {
            "bufferView" : 29,
            "componentType" : 5123,
            "count" : 39231,
            "type" : "SCALAR"
        }
    ],
    "bufferViews" : [
        {
            "buffer" : 0,
            "byteLength" : 786420,
            "byteOffset" : 0
        },
        {
            "buffer" : 0,
            "byteLength" : 786420,
            "byteOffset" : 786420
        },
        {
            "buffer" : 0,
            "byteLength" : 131070,
            "byteOffset" : 1572840
        },
        {
            "buffer" : 0,
            "byteLength" : 786420,
            "byteOffset" : 1703912
        },
        {
            "buffer" : 0,
            "byteLength" : 786420,
            "byteOffset" : 2490332
        },
        {
            "buffer" : 0,
            "byteLength" : 786420,
            "byteOffset" : 3276752
        },
        {
            "buffer" : 0,
            "byteLength" : 786420,
            "byteOffset" : 4063172
        },
        {
            "buffer" : 0,
            "byteLength" : 786420,
            "byteOffset" : 4849592
        },
        {
            "buffer" : 0,
            "byteLength" : 786420,
            "byteOffset" : 5636012
        },
        {
            "buffer" : 0,
            "byteLength" : 786420,
            "byteOffset" : 6422432
        },
        {
            "buffer" : 0,
            "byteLength" : 786420,
            "byteOffset" : 7208852
        },
        {
            "buffer" : 0,
            "byteLength" : 786420,
            "byteOffset" : 7995272
        },
        {
            "buffer" : 0,
            "byteLength" : 786420,
            "byteOffset" : 8781692
        },
        {
            "buffer" : 0,
            "byteLength" : 786420,
            "byteOffset" : 9568112
        },
        {
            "buffer" : 0,
            "byteLength" : 786420,
            "byteOffset" : 10354532
        },
        {
            "buffer" : 0,
            "byteLength" : 786420,
            "byteOffset" : 11140952
        },
        {
            "buffer" : 0,
            "byteLength" : 786420,
            "byteOffset" : 11927372
        },
        {
            "buffer" : 0,
            "byteLength" : 786420,
            "byteOffset" : 12713792
        },
        {
            "buffer" : 0,
            "byteLength" : 786420,
            "byteOffset" : 13500212
        },
        {
            "buffer" : 0,
            "byteLength" : 786420,
            "byteOffset" : 14286632
        },
        {
            "buffer" : 0,
            "byteLength" : 786420,
            "byteOffset" : 15073052
        },
        {
            "buffer" : 0,
            "byteLength" : 786420,
            "byteOffset" : 15859472
        },
        {
            "buffer" : 0,
            "byteLength" : 786420,
            "byteOffset" : 16645892
        },
        {
            "buffer" : 0,
            "byteLength" : 786420,
            "byteOffset" : 17432312
        },
        {
            "buffer" : 0,
            "byteLength" : 786420,
            "byteOffset" : 18218732
        },
        {
            "buffer" : 0,
            "byteLength" : 786420,
            "byteOffset" : 19005152
        },
        {
            "buffer" : 0,
            "byteLength" : 786420,
            "byteOffset" : 19791572
        },
        {
            "buffer" : 0,
            "byteLength" : 470772,
            "byteOffset" : 20577992
        },
        {
            "buffer" : 0,
            "byteLength" : 470772,
            "byteOffset" : 21048764
        },
        {
            "buffer" : 0,
            "byteLength" : 78462,
            "byteOffset" : 21519536
        }
    ],
    "buffers" : [
        {
            "byteLength" : 21598000,
            "uri" : "CopperSkeleton.bin"
        }
    ]
}
