{
    "asset" : {
        "generator" : "Khronos glTF Blender I/O v0.9.36",
        "version" : "2.0"
    },
    "scene" : 0,
    "scenes" : [
        {
            "name" : "Scene",
            "nodes" : [
                5
            ]
        }
    ],
    "nodes" : [
        {
            "mesh" : 0,
            "name" : "claws1"
        },
        {
            "mesh" : 1,
            "name" : "L_Eye1"
        },
        {
            "mesh" : 2,
            "name" : "R_eye"
        },
        {
            "mesh" : 3,
            "name" : "Skin"
        },
        {
            "mesh" : 4,
            "name" : "teeth1"
        },
        {
            "children" : [
                0,
                1,
                2,
                3,
                4
            ],
            "name" : "trexGeoGrp",
            "rotation" : [
                0.7071068286895752,
                0,
                0,
                0.7071067094802856
            ],
            "scale" : [
                0.009999999776482582,
                0.009999999776482582,
                0.009999999776482582
            ]
        }
    ],
    "materials" : [
        {
            "doubleSided" : true,
            "name" : "clawColor",
            "pbrMetallicRoughness" : {
                "baseColorFactor" : [
                    1,
                    1,
                    1,
                    1
                ],
                "metallicFactor" : 0.5,
                "roughnessFactor" : 0.5527864098548889
            }
        },
        {
            "doubleSided" : true,
            "name" : "eyeColor",
            "pbrMetallicRoughness" : {
                "baseColorFactor" : [
                    0,
                    0,
                    0,
                    1
                ],
                "metallicFactor" : 1,
                "roughnessFactor" : 0.5527864098548889
            }
        },
        {
            "doubleSided" : true,
            "name" : "SkinColor",
            "normalTexture" : {
                "index" : 0,
                "scale" : 0.0070008402690291405,
                "texCoord" : 0
            },
            "pbrMetallicRoughness" : {
                "baseColorTexture" : {
                    "index" : 1,
                    "texCoord" : 0
                },
                "metallicFactor" : 0.019999999552965164,
                "metallicRoughnessTexture" : {
                    "index" : 2,
                    "texCoord" : 0
                }
            }
        },
        {
            "doubleSided" : true,
            "name" : "teethTexture",
            "pbrMetallicRoughness" : {
                "baseColorFactor" : [
                    1,
                    1,
                    1,
                    1
                ],
                "metallicFactor" : 0.5,
                "roughnessFactor" : 0.3375801742076874
            }
        }
    ],
    "meshes" : [
        {
            "name" : "Mesh.008",
            "primitives" : [
                {
                    "attributes" : {
                        "POSITION" : 0,
                        "NORMAL" : 1,
                        "TANGENT" : 2,
                        "TEXCOORD_0" : 3
                    },
                    "indices" : 4,
                    "material" : 0
                }
            ]
        },
        {
            "name" : "Mesh.005",
            "primitives" : [
                {
                    "attributes" : {
                        "POSITION" : 5,
                        "NORMAL" : 6,
                        "TANGENT" : 7,
                        "TEXCOORD_0" : 8
                    },
                    "indices" : 9,
                    "material" : 1
                }
            ]
        },
        {
            "name" : "Mesh.001",
            "primitives" : [
                {
                    "attributes" : {
                        "POSITION" : 10,
                        "NORMAL" : 11,
                        "TANGENT" : 12,
                        "TEXCOORD_0" : 13
                    },
                    "indices" : 14,
                    "material" : 1
                }
            ]
        },
        {
            "name" : "Mesh",
            "primitives" : [
                {
                    "attributes" : {
                        "POSITION" : 15,
                        "NORMAL" : 16,
                        "TANGENT" : 17,
                        "TEXCOORD_0" : 18
                    },
                    "indices" : 19,
                    "material" : 2
                }
            ]
        },
        {
            "name" : "Mesh.007",
            "primitives" : [
                {
                    "attributes" : {
                        "POSITION" : 20,
                        "NORMAL" : 21,
                        "TANGENT" : 22,
                        "TEXCOORD_0" : 23
                    },
                    "indices" : 24,
                    "material" : 3
                }
            ]
        }
    ],
    "textures" : [
        {
            "source" : 0
        },
        {
            "source" : 1
        },
        {
            "source" : 2
        }
    ],
    "images" : [
        {
            "mimeType" : "image/png",
            "name" : "scuffed-plastic-normal",
            "uri" : "scuffed-plastic-normal.png"
        },
        {
            "mimeType" : "image/png",
            "name" : "scuffed-plastic3-alb",
            "uri" : "scuffed-plastic3-alb.png"
        },
        {
            "mimeType" : "image/png",
            "name" : "scuffed-plastic-rough",
            "uri" : "scuffed-plastic-rough.png"
        }
    ],
    "accessors" : [
        {
            "bufferView" : 0,
            "componentType" : 5126,
            "count" : 2252,
            "max" : [
                1.969756007194519,
                3.834397077560425,
                3.043454885482788
            ],
            "min" : [
                -2.211143970489502,
                -0.010855999775230885,
                -6.4499921798706055
            ],
            "type" : "VEC3"
        },
        {
            "bufferView" : 1,
            "componentType" : 5126,
            "count" : 2252,
            "type" : "VEC3"
        },
        {
            "bufferView" : 2,
            "componentType" : 5126,
            "count" : 2252,
            "type" : "VEC4"
        },
        {
            "bufferView" : 3,
            "componentType" : 5126,
            "count" : 2252,
            "type" : "VEC2"
        },
        {
            "bufferView" : 4,
            "componentType" : 5123,
            "count" : 11616,
            "type" : "SCALAR"
        },
        {
            "bufferView" : 5,
            "componentType" : 5126,
            "count" : 577,
            "max" : [
                -0.13048699498176575,
                7.063577175140381,
                6.43938684463501
            ],
            "min" : [
                -0.3755910098552704,
                6.817732810974121,
                6.193459987640381
            ],
            "type" : "VEC3"
        },
        {
            "bufferView" : 6,
            "componentType" : 5126,
            "count" : 577,
            "type" : "VEC3"
        },
        {
            "bufferView" : 7,
            "componentType" : 5126,
            "count" : 577,
            "type" : "VEC4"
        },
        {
            "bufferView" : 8,
            "componentType" : 5126,
            "count" : 577,
            "type" : "VEC2"
        },
        {
            "bufferView" : 9,
            "componentType" : 5123,
            "count" : 3240,
            "type" : "SCALAR"
        },
        {
            "bufferView" : 10,
            "componentType" : 5126,
            "count" : 577,
            "max" : [
                0.8444939851760864,
                7.06342887878418,
                6.460377216339111
            ],
            "min" : [
                0.5991430282592773,
                6.817837238311768,
                6.217341899871826
            ],
            "type" : "VEC3"
        },
        {
            "bufferView" : 11,
            "componentType" : 5126,
            "count" : 577,
            "type" : "VEC3"
        },
        {
            "bufferView" : 12,
            "componentType" : 5126,
            "count" : 577,
            "type" : "VEC4"
        },
        {
            "bufferView" : 13,
            "componentType" : 5126,
            "count" : 577,
            "type" : "VEC2"
        },
        {
            "bufferView" : 14,
            "componentType" : 5123,
            "count" : 3240,
            "type" : "SCALAR"
        },
        {
            "bufferView" : 15,
            "componentType" : 5126,
            "count" : 28703,
            "max" : [
                1.823909044265747,
                8.235037803649902,
                8.211528778076172
            ],
            "min" : [
                -4.115856170654297,
                -0.02946699969470501,
                -17.387786865234375
            ],
            "type" : "VEC3"
        },
        {
            "bufferView" : 16,
            "componentType" : 5126,
            "count" : 28703,
            "type" : "VEC3"
        },
        {
            "bufferView" : 17,
            "componentType" : 5126,
            "count" : 28703,
            "type" : "VEC4"
        },
        {
            "bufferView" : 18,
            "componentType" : 5126,
            "count" : 28703,
            "type" : "VEC2"
        },
        {
            "bufferView" : 19,
            "componentType" : 5123,
            "count" : 165288,
            "type" : "SCALAR"
        },
        {
            "bufferView" : 20,
            "componentType" : 5126,
            "count" : 10870,
            "max" : [
                0.784151017665863,
                6.004899024963379,
                8.118158340454102
            ],
            "min" : [
                -0.33140599727630615,
                5.237215995788574,
                6.579967021942139
            ],
            "type" : "VEC3"
        },
        {
            "bufferView" : 21,
            "componentType" : 5126,
            "count" : 10870,
            "type" : "VEC3"
        },
        {
            "bufferView" : 22,
            "componentType" : 5126,
            "count" : 10870,
            "type" : "VEC4"
        },
        {
            "bufferView" : 23,
            "componentType" : 5126,
            "count" : 10870,
            "type" : "VEC2"
        },
        {
            "bufferView" : 24,
            "componentType" : 5123,
            "count" : 54783,
            "type" : "SCALAR"
        }
    ],
    "bufferViews" : [
        {
            "buffer" : 0,
            "byteLength" : 27024,
            "byteOffset" : 0
        },
        {
            "buffer" : 0,
            "byteLength" : 27024,
            "byteOffset" : 27024
        },
        {
            "buffer" : 0,
            "byteLength" : 36032,
            "byteOffset" : 54048
        },
        {
            "buffer" : 0,
            "byteLength" : 18016,
            "byteOffset" : 90080
        },
        {
            "buffer" : 0,
            "byteLength" : 23232,
            "byteOffset" : 108096
        },
        {
            "buffer" : 0,
            "byteLength" : 6924,
            "byteOffset" : 131328
        },
        {
            "buffer" : 0,
            "byteLength" : 6924,
            "byteOffset" : 138252
        },
        {
            "buffer" : 0,
            "byteLength" : 9232,
            "byteOffset" : 145176
        },
        {
            "buffer" : 0,
            "byteLength" : 4616,
            "byteOffset" : 154408
        },
        {
            "buffer" : 0,
            "byteLength" : 6480,
            "byteOffset" : 159024
        },
        {
            "buffer" : 0,
            "byteLength" : 6924,
            "byteOffset" : 165504
        },
        {
            "buffer" : 0,
            "byteLength" : 6924,
            "byteOffset" : 172428
        },
        {
            "buffer" : 0,
            "byteLength" : 9232,
            "byteOffset" : 179352
        },
        {
            "buffer" : 0,
            "byteLength" : 4616,
            "byteOffset" : 188584
        },
        {
            "buffer" : 0,
            "byteLength" : 6480,
            "byteOffset" : 193200
        },
        {
            "buffer" : 0,
            "byteLength" : 344436,
            "byteOffset" : 199680
        },
        {
            "buffer" : 0,
            "byteLength" : 344436,
            "byteOffset" : 544116
        },
        {
            "buffer" : 0,
            "byteLength" : 459248,
            "byteOffset" : 888552
        },
        {
            "buffer" : 0,
            "byteLength" : 229624,
            "byteOffset" : 1347800
        },
        {
            "buffer" : 0,
            "byteLength" : 330576,
            "byteOffset" : 1577424
        },
        {
            "buffer" : 0,
            "byteLength" : 130440,
            "byteOffset" : 1908000
        },
        {
            "buffer" : 0,
            "byteLength" : 130440,
            "byteOffset" : 2038440
        },
        {
            "buffer" : 0,
            "byteLength" : 173920,
            "byteOffset" : 2168880
        },
        {
            "buffer" : 0,
            "byteLength" : 86960,
            "byteOffset" : 2342800
        },
        {
            "buffer" : 0,
            "byteLength" : 109566,
            "byteOffset" : 2429760
        }
    ],
    "buffers" : [
        {
            "byteLength" : 2539328,
            "uri" : "GreenToyDinosaur.bin"
        }
    ]
}
