{
    "asset" : {
        "generator" : "Khronos glTF Blender I/O v0.9.36",
        "version" : "2.0"
    },
    "scene" : 0,
    "scenes" : [
        {
            "name" : "Scene",
            "nodes" : [
                0
            ]
        }
    ],
    "nodes" : [
        {
            "mesh" : 0,
            "name" : "Bullet",
            "rotation" : [
                0.7071068286895752,
                0,
                0,
                0.7071067094802856
            ],
            "scale" : [
                0.009999999776482582,
                0.009999999776482582,
                0.009999999776482582
            ]
        }
    ],
    "materials" : [
        {
            "doubleSided" : true,
            "name" : "bullet",
            "normalTexture" : {
                "index" : 0,
                "scale" : 0.1400168091058731,
                "texCoord" : 0
            },
            "pbrMetallicRoughness" : {
                "baseColorTexture" : {
                    "index" : 1,
                    "texCoord" : 0
                },
                "metallicRoughnessTexture" : {
                    "index" : 2,
                    "texCoord" : 0
                }
            }
        }
    ],
    "meshes" : [
        {
            "name" : "Mesh",
            "primitives" : [
                {
                    "attributes" : {
                        "POSITION" : 0,
                        "NORMAL" : 1,
                        "TANGENT" : 2,
                        "TEXCOORD_0" : 3
                    },
                    "indices" : 4,
                    "material" : 0
                }
            ]
        }
    ],
    "textures" : [
        {
            "source" : 0
        },
        {
            "source" : 1
        },
        {
            "source" : 2
        }
    ],
    "images" : [
        {
            "mimeType" : "image/png",
            "name" : "Bullet_Normal",
            "uri" : "Bullet_Normal.png"
        },
        {
            "mimeType" : "image/png",
            "name" : "Bullet_BaseColor",
            "uri" : "Bullet_BaseColor.png"
        },
        {
            "mimeType" : "image/png",
            "name" : "Bullet_Metallic-Bullet_Roughness",
            "uri" : "Bullet_Metallic-Bullet_Roughness.png"
        }
    ],
    "accessors" : [
        {
            "bufferView" : 0,
            "componentType" : 5126,
            "count" : 1254,
            "max" : [
                124.0311508178711,
                44.03131103515625,
                44.04182815551758
            ],
            "min" : [
                -134.07571411132812,
                -44.05232620239258,
                -44.041778564453125
            ],
            "type" : "VEC3"
        },
        {
            "bufferView" : 1,
            "componentType" : 5126,
            "count" : 1254,
            "type" : "VEC3"
        },
        {
            "bufferView" : 2,
            "componentType" : 5126,
            "count" : 1254,
            "type" : "VEC4"
        },
        {
            "bufferView" : 3,
            "componentType" : 5126,
            "count" : 1254,
            "type" : "VEC2"
        },
        {
            "bufferView" : 4,
            "componentType" : 5123,
            "count" : 4800,
            "type" : "SCALAR"
        }
    ],
    "bufferViews" : [
        {
            "buffer" : 0,
            "byteLength" : 15048,
            "byteOffset" : 0
        },
        {
            "buffer" : 0,
            "byteLength" : 15048,
            "byteOffset" : 15048
        },
        {
            "buffer" : 0,
            "byteLength" : 20064,
            "byteOffset" : 30096
        },
        {
            "buffer" : 0,
            "byteLength" : 10032,
            "byteOffset" : 50160
        },
        {
            "buffer" : 0,
            "byteLength" : 9600,
            "byteOffset" : 60192
        }
    ],
    "buffers" : [
        {
            "byteLength" : 69792,
            "uri" : "Bullet.bin"
        }
    ]
}
